<svg xmlns="http://www.w3.org/2000/svg" xml:space="preserve" width="500" height="333" style="shape-rendering:geometricPrecision;text-rendering:geometricPrecision;image-rendering:optimizeQuality;fill-rule:evenodd;clip-rule:evenodd" version="1.1" viewBox="0 0 500 333"><defs><style type="text/css">.fil0{fill:#bcbdc1}.fil1{fill:#efefef}</style></defs><g id="Layer_x0020_1"><path d="M0 214.34V333.6h500V227.87l-14.26-20.21c-.92-1.36-1.99-2.89-2.91-4.16-11.72-16.25-19.04-24.76-30.61-39.28-7.78-9.77-18.01-19.81-26.77-28.72-8.49-8.64-20.15-18-30.49-25.39-10.59-7.58-22.67-13.91-36.59-18.85-15.08-5.35-32.74-5.48-47.66-.05-31.22 11.35-58.75 48.77-76.48 76.24-8.23 12.76-19.59 29.76-28.16 41.75l-12.31 15.42c-8.69 9.97-21.54 21.14-36.13 18.94-9.47-1.43-18.68-11.54-26.84-18.49-7.65-6.52-12.93-10.99-21.19-17.1-5.23-3.86-11.36-8.02-16.66-11.09-6.07-3.51-12.24-6.72-18.9-9.23-14.02-5.29-31.63-7.99-45.87-.95-6.42 3.18-10.9 7.85-15.4 12.4-1.97 1.99-4.72 5.2-6.55 7.53-1.01 1.29-5.09 6.78-6.22 7.71z" class="fil0"/><path d="M0 214.34c1.13-.93 5.21-6.42 6.22-7.71 1.83-2.33 4.58-5.54 6.55-7.53 4.5-4.55 8.98-9.22 15.4-12.4 14.24-7.04 31.85-4.34 45.87.95 6.66 2.51 12.83 5.72 18.9 9.23 5.3 3.07 11.43 7.23 16.66 11.09 8.26 6.11 13.54 10.58 21.19 17.1 8.16 6.95 17.37 17.06 26.84 18.49 14.59 2.2 27.44-8.97 36.13-18.94l12.31-15.42c8.57-11.99 19.93-28.99 28.16-41.75 17.73-27.47 45.26-64.89 76.48-76.24 14.92-5.43 32.58-5.3 47.66.05 13.92 4.94 26 11.27 36.59 18.85 10.34 7.39 22 16.75 30.49 25.39 8.76 8.91 18.99 18.95 26.77 28.72 11.57 14.52 18.89 23.03 30.61 39.28.92 1.27 1.99 2.8 2.91 4.16L500 227.87V.4H0v213.94z" class="fil1"/><path d="M144.92 169.48c21.93 0 28.75-30.47 8.3-39.87-8.25-3.78-18.11-1.03-23.33 4.58-12.65 13.6-3.06 35.29 15.03 35.29z" class="fil0"/></g></svg>